<mxfile host="app.diagrams.net" modified="2024-01-08T17:38:24.863Z" agent="Mozilla/5.0 (Windows NT 10.0; Win64; x64) AppleWebKit/537.36 (KHTML, like Gecko) Chrome/120.0.0.0 Safari/537.36" etag="WqpX3foEpeWfxMBem6uI" version="22.1.17" type="github">
  <diagram id="C5RBs43oDa-KdzZeNtuy" name="Page-1">
    <mxGraphModel dx="1418" dy="717" grid="1" gridSize="10" guides="1" tooltips="1" connect="1" arrows="1" fold="1" page="1" pageScale="1" pageWidth="827" pageHeight="1169" math="0" shadow="0">
      <root>
        <mxCell id="WIyWlLk6GJQsqaUBKTNV-0" />
        <mxCell id="WIyWlLk6GJQsqaUBKTNV-1" parent="WIyWlLk6GJQsqaUBKTNV-0" />
        <mxCell id="WIyWlLk6GJQsqaUBKTNV-2" value="" style="rounded=0;html=1;jettySize=auto;orthogonalLoop=1;fontSize=11;endArrow=block;endFill=0;endSize=8;strokeWidth=1;shadow=0;labelBackgroundColor=none;edgeStyle=orthogonalEdgeStyle;" parent="WIyWlLk6GJQsqaUBKTNV-1" source="WIyWlLk6GJQsqaUBKTNV-3" edge="1">
          <mxGeometry relative="1" as="geometry">
            <mxPoint x="240" y="165" as="targetPoint" />
          </mxGeometry>
        </mxCell>
        <mxCell id="WIyWlLk6GJQsqaUBKTNV-3" value="Start&lt;br&gt;Prompt user to input data" style="rounded=1;whiteSpace=wrap;html=1;fontSize=12;glass=0;strokeWidth=1;shadow=0;" parent="WIyWlLk6GJQsqaUBKTNV-1" vertex="1">
          <mxGeometry x="170" y="80" width="140" height="35" as="geometry" />
        </mxCell>
        <mxCell id="SuNOhPGvzMYFYTVkQDeq-0" value="Imput Length" style="shape=parallelogram;perimeter=parallelogramPerimeter;whiteSpace=wrap;html=1;fixedSize=1;" vertex="1" parent="WIyWlLk6GJQsqaUBKTNV-1">
          <mxGeometry x="170" y="165" width="120" height="60" as="geometry" />
        </mxCell>
        <mxCell id="SuNOhPGvzMYFYTVkQDeq-1" value="&lt;div&gt;Start&lt;/div&gt;&lt;div&gt;imput length for one edge of a cube&lt;/div&gt;&lt;div&gt;Calc 1 side area&lt;/div&gt;&lt;div&gt;Calc cube area A=6a^2&lt;/div&gt;&lt;div&gt;Calc cube vol&lt;/div&gt;&lt;div&gt;output info&lt;/div&gt;&lt;div&gt;Print surface area 1 side&lt;/div&gt;&lt;div&gt;Print surface area whole cube&lt;/div&gt;&lt;div&gt;print cube volume&lt;/div&gt;&lt;div&gt;Stop&lt;/div&gt;&lt;div&gt;&lt;br&gt;&lt;/div&gt;" style="whiteSpace=wrap;html=1;aspect=fixed;" vertex="1" parent="WIyWlLk6GJQsqaUBKTNV-1">
          <mxGeometry x="530" y="20" width="260" height="260" as="geometry" />
        </mxCell>
        <mxCell id="SuNOhPGvzMYFYTVkQDeq-3" value="cube1SideArea= CalC 1 side area of cube&lt;br style=&quot;border-color: var(--border-color);&quot;&gt;Length * Length" style="rounded=0;whiteSpace=wrap;html=1;" vertex="1" parent="WIyWlLk6GJQsqaUBKTNV-1">
          <mxGeometry x="115" y="270" width="215" height="60" as="geometry" />
        </mxCell>
        <mxCell id="SuNOhPGvzMYFYTVkQDeq-4" value="cubeSArea= Calc A=6 * length ^ 2" style="rounded=0;whiteSpace=wrap;html=1;" vertex="1" parent="WIyWlLk6GJQsqaUBKTNV-1">
          <mxGeometry x="115" y="390" width="215" height="60" as="geometry" />
        </mxCell>
        <mxCell id="SuNOhPGvzMYFYTVkQDeq-5" value="cubeVolume= CalC length ^3" style="rounded=0;whiteSpace=wrap;html=1;" vertex="1" parent="WIyWlLk6GJQsqaUBKTNV-1">
          <mxGeometry x="114" y="490" width="215" height="60" as="geometry" />
        </mxCell>
        <mxCell id="SuNOhPGvzMYFYTVkQDeq-6" value="Print cube1SideArea" style="shape=document;whiteSpace=wrap;html=1;boundedLbl=1;" vertex="1" parent="WIyWlLk6GJQsqaUBKTNV-1">
          <mxGeometry x="145.5" y="619" width="150" height="80" as="geometry" />
        </mxCell>
        <mxCell id="SuNOhPGvzMYFYTVkQDeq-7" value="Print cube1cubeSArea" style="shape=document;whiteSpace=wrap;html=1;boundedLbl=1;" vertex="1" parent="WIyWlLk6GJQsqaUBKTNV-1">
          <mxGeometry x="151.5" y="730" width="140" height="80" as="geometry" />
        </mxCell>
        <mxCell id="SuNOhPGvzMYFYTVkQDeq-8" value="Print cubeVolume" style="shape=document;whiteSpace=wrap;html=1;boundedLbl=1;" vertex="1" parent="WIyWlLk6GJQsqaUBKTNV-1">
          <mxGeometry x="152.5" y="840" width="140" height="80" as="geometry" />
        </mxCell>
        <mxCell id="SuNOhPGvzMYFYTVkQDeq-9" value="" style="endArrow=classic;html=1;rounded=0;exitX=0.442;exitY=0.983;exitDx=0;exitDy=0;exitPerimeter=0;" edge="1" parent="WIyWlLk6GJQsqaUBKTNV-1" source="SuNOhPGvzMYFYTVkQDeq-0" target="SuNOhPGvzMYFYTVkQDeq-3">
          <mxGeometry width="50" height="50" relative="1" as="geometry">
            <mxPoint x="380" y="350" as="sourcePoint" />
            <mxPoint x="430" y="300" as="targetPoint" />
          </mxGeometry>
        </mxCell>
        <mxCell id="SuNOhPGvzMYFYTVkQDeq-10" value="" style="endArrow=classic;html=1;rounded=0;exitX=0.5;exitY=1;exitDx=0;exitDy=0;" edge="1" parent="WIyWlLk6GJQsqaUBKTNV-1" source="SuNOhPGvzMYFYTVkQDeq-3" target="SuNOhPGvzMYFYTVkQDeq-4">
          <mxGeometry width="50" height="50" relative="1" as="geometry">
            <mxPoint x="233" y="234" as="sourcePoint" />
            <mxPoint x="233" y="280" as="targetPoint" />
          </mxGeometry>
        </mxCell>
        <mxCell id="SuNOhPGvzMYFYTVkQDeq-11" value="" style="endArrow=classic;html=1;rounded=0;exitX=0.5;exitY=1;exitDx=0;exitDy=0;entryX=0.5;entryY=0;entryDx=0;entryDy=0;" edge="1" parent="WIyWlLk6GJQsqaUBKTNV-1" source="SuNOhPGvzMYFYTVkQDeq-4" target="SuNOhPGvzMYFYTVkQDeq-5">
          <mxGeometry width="50" height="50" relative="1" as="geometry">
            <mxPoint x="243" y="244" as="sourcePoint" />
            <mxPoint x="243" y="290" as="targetPoint" />
          </mxGeometry>
        </mxCell>
        <mxCell id="SuNOhPGvzMYFYTVkQDeq-12" value="" style="endArrow=classic;html=1;rounded=0;entryX=0.5;entryY=0;entryDx=0;entryDy=0;" edge="1" parent="WIyWlLk6GJQsqaUBKTNV-1" source="SuNOhPGvzMYFYTVkQDeq-5" target="SuNOhPGvzMYFYTVkQDeq-6">
          <mxGeometry width="50" height="50" relative="1" as="geometry">
            <mxPoint x="230" y="570" as="sourcePoint" />
            <mxPoint x="253" y="300" as="targetPoint" />
          </mxGeometry>
        </mxCell>
        <mxCell id="SuNOhPGvzMYFYTVkQDeq-13" value="" style="endArrow=classic;html=1;rounded=0;exitX=0.51;exitY=0.888;exitDx=0;exitDy=0;exitPerimeter=0;" edge="1" parent="WIyWlLk6GJQsqaUBKTNV-1" source="SuNOhPGvzMYFYTVkQDeq-6" target="SuNOhPGvzMYFYTVkQDeq-7">
          <mxGeometry width="50" height="50" relative="1" as="geometry">
            <mxPoint x="231" y="560" as="sourcePoint" />
            <mxPoint x="231" y="629" as="targetPoint" />
          </mxGeometry>
        </mxCell>
        <mxCell id="SuNOhPGvzMYFYTVkQDeq-14" value="" style="endArrow=classic;html=1;rounded=0;entryX=0.5;entryY=0;entryDx=0;entryDy=0;exitX=0.504;exitY=0.875;exitDx=0;exitDy=0;exitPerimeter=0;" edge="1" parent="WIyWlLk6GJQsqaUBKTNV-1" source="SuNOhPGvzMYFYTVkQDeq-7" target="SuNOhPGvzMYFYTVkQDeq-8">
          <mxGeometry width="50" height="50" relative="1" as="geometry">
            <mxPoint x="241" y="570" as="sourcePoint" />
            <mxPoint x="241" y="639" as="targetPoint" />
          </mxGeometry>
        </mxCell>
        <mxCell id="SuNOhPGvzMYFYTVkQDeq-15" value="Stop" style="rounded=1;whiteSpace=wrap;html=1;fontSize=12;glass=0;strokeWidth=1;shadow=0;" vertex="1" parent="WIyWlLk6GJQsqaUBKTNV-1">
          <mxGeometry x="152" y="980" width="140" height="35" as="geometry" />
        </mxCell>
        <mxCell id="SuNOhPGvzMYFYTVkQDeq-16" value="" style="endArrow=classic;html=1;rounded=0;entryX=0.5;entryY=0;entryDx=0;entryDy=0;" edge="1" parent="WIyWlLk6GJQsqaUBKTNV-1" source="SuNOhPGvzMYFYTVkQDeq-8" target="SuNOhPGvzMYFYTVkQDeq-15">
          <mxGeometry width="50" height="50" relative="1" as="geometry">
            <mxPoint x="232" y="810" as="sourcePoint" />
            <mxPoint x="233" y="850" as="targetPoint" />
          </mxGeometry>
        </mxCell>
      </root>
    </mxGraphModel>
  </diagram>
</mxfile>
